<?xml version="1.0" encoding="UTF-8" ?>
<svg version="1.1" width="500" height="500" xmlns="http://www.w3.org/2000/svg" shape-rendering="crispEdges">
<rect x="200" y="0" width="50" height="50" fill="#6540FF" />
<rect x="250" y="0" width="50" height="50" fill="#6540FF" />
<rect x="50" y="50" width="50" height="50" fill="#6540FF" />
<rect x="100" y="50" width="50" height="50" fill="#6540FF" />
<rect x="150" y="50" width="50" height="50" fill="#6540FF" />
<rect x="200" y="50" width="50" height="50" fill="#6540FF" />
<rect x="250" y="50" width="50" height="50" fill="#6540FF" />
<rect x="300" y="50" width="50" height="50" fill="#6540FF" />
<rect x="350" y="50" width="50" height="50" fill="#6540FF" />
<rect x="400" y="50" width="50" height="50" fill="#6540FF" />
<rect x="0" y="100" width="50" height="50" fill="#6540FF" />
<rect x="50" y="100" width="50" height="50" fill="#6540FF" />
<rect x="100" y="100" width="50" height="50" fill="#6540FF" />
<rect x="150" y="100" width="50" height="50" fill="#6540FF" />
<rect x="200" y="100" width="50" height="50" fill="#6540FF" />
<rect x="250" y="100" width="50" height="50" fill="#6540FF" />
<rect x="300" y="100" width="50" height="50" fill="#6540FF" />
<rect x="350" y="100" width="50" height="50" fill="#6540FF" />
<rect x="400" y="100" width="50" height="50" fill="#6540FF" />
<rect x="450" y="100" width="50" height="50" fill="#6540FF" />
<rect x="50" y="150" width="50" height="50" fill="#6540FF" />
<rect x="100" y="150" width="50" height="50" fill="#FFF6E3" />
<rect x="150" y="150" width="50" height="50" fill="#FFF6E3" />
<rect x="200" y="150" width="50" height="50" fill="#FFF6E3" />
<rect x="250" y="150" width="50" height="50" fill="#FFF6E3" />
<rect x="300" y="150" width="50" height="50" fill="#FFF6E3" />
<rect x="350" y="150" width="50" height="50" fill="#FFF6E3" />
<rect x="400" y="150" width="50" height="50" fill="#6540FF" />
<rect x="50" y="200" width="50" height="50" fill="#6540FF" />
<rect x="100" y="200" width="50" height="50" fill="#FFF6E3" />
<rect x="150" y="200" width="50" height="50" fill="#6540FF" />
<rect x="200" y="200" width="50" height="50" fill="#FFF6E3" />
<rect x="250" y="200" width="50" height="50" fill="#FFF6E3" />
<rect x="300" y="200" width="50" height="50" fill="#6540FF" />
<rect x="350" y="200" width="50" height="50" fill="#FFF6E3" />
<rect x="400" y="200" width="50" height="50" fill="#6540FF" />
<rect x="50" y="250" width="50" height="50" fill="#6540FF" />
<rect x="100" y="250" width="50" height="50" fill="#FFF6E3" />
<rect x="150" y="250" width="50" height="50" fill="#6540FF" />
<rect x="200" y="250" width="50" height="50" fill="#FFF6E3" />
<rect x="250" y="250" width="50" height="50" fill="#FFF6E3" />
<rect x="300" y="250" width="50" height="50" fill="#6540FF" />
<rect x="350" y="250" width="50" height="50" fill="#FFF6E3" />
<rect x="400" y="250" width="50" height="50" fill="#6540FF" />
<rect x="50" y="300" width="50" height="50" fill="#6540FF" />
<rect x="100" y="300" width="50" height="50" fill="#FFF6E3" />
<rect x="150" y="300" width="50" height="50" fill="#6540FF" />
<rect x="200" y="300" width="50" height="50" fill="#FFF6E3" />
<rect x="250" y="300" width="50" height="50" fill="#FFF6E3" />
<rect x="300" y="300" width="50" height="50" fill="#6540FF" />
<rect x="350" y="300" width="50" height="50" fill="#FFF6E3" />
<rect x="400" y="300" width="50" height="50" fill="#6540FF" />
<rect x="50" y="350" width="50" height="50" fill="#6540FF" />
<rect x="100" y="350" width="50" height="50" fill="#FFF6E3" />
<rect x="150" y="350" width="50" height="50" fill="#6540FF" />
<rect x="200" y="350" width="50" height="50" fill="#FFF6E3" />
<rect x="250" y="350" width="50" height="50" fill="#FFF6E3" />
<rect x="300" y="350" width="50" height="50" fill="#6540FF" />
<rect x="350" y="350" width="50" height="50" fill="#FFF6E3" />
<rect x="400" y="350" width="50" height="50" fill="#6540FF" />
<rect x="50" y="400" width="50" height="50" fill="#6540FF" />
<rect x="100" y="400" width="50" height="50" fill="#FFF6E3" />
<rect x="150" y="400" width="50" height="50" fill="#FFF6E3" />
<rect x="200" y="400" width="50" height="50" fill="#FFF6E3" />
<rect x="250" y="400" width="50" height="50" fill="#FFF6E3" />
<rect x="300" y="400" width="50" height="50" fill="#FFF6E3" />
<rect x="350" y="400" width="50" height="50" fill="#FFF6E3" />
<rect x="400" y="400" width="50" height="50" fill="#6540FF" />
<rect x="50" y="450" width="50" height="50" fill="#6540FF" />
<rect x="100" y="450" width="50" height="50" fill="#6540FF" />
<rect x="150" y="450" width="50" height="50" fill="#6540FF" />
<rect x="200" y="450" width="50" height="50" fill="#6540FF" />
<rect x="250" y="450" width="50" height="50" fill="#6540FF" />
<rect x="300" y="450" width="50" height="50" fill="#6540FF" />
<rect x="350" y="450" width="50" height="50" fill="#6540FF" />
<rect x="400" y="450" width="50" height="50" fill="#6540FF" />
</svg>